<?xml version="1.0" encoding="iso-8859-1"?>
<!-- Generator: Adobe Illustrator 19.0.0, SVG Export Plug-In . SVG Version: 6.00 Build 0)  -->
<svg xmlns="http://www.w3.org/2000/svg" xmlns:xlink="http://www.w3.org/1999/xlink" version="1.1" id="Layer_1" x="0px" y="0px" viewBox="0 0 512 512" style="enable-background:new 0 0 512 512;" xml:space="preserve" width="512" height="512">
<g>
	<g>
		<path style="fill:#A6C1D8;" d="M256,51.314c-13.484,0-24.415,10.931-24.415,24.415v129.434h48.83V75.729    C280.415,62.245,269.484,51.314,256,51.314z"/>
		<path style="fill:#D5EBF6;" d="M50.154,314.53l69.723,105.71c0,0,52.844,40.447,136.123,40.447s136.123-40.447,136.123-40.447    l69.723-105.71l-69.723-105.71c0,0-52.844-40.447-136.123-40.447S119.877,208.82,119.877,208.82L50.154,314.53z"/>
		<path style="fill:#A6C1D8;" d="M392.123,380.24c0,0-52.844,40.447-136.123,40.447S119.877,380.24,119.877,380.24l-56.531-85.71    l-13.191,20l69.723,105.71c0,0,52.844,40.447,136.123,40.447s136.123-40.447,136.123-40.447l69.723-105.71l-13.191-20    L392.123,380.24z"/>
		<rect x="7.5" y="208.82" style="fill:#D5EBF6;" width="85.308" height="211.42"/>
		<rect x="7.5" y="380.24" style="fill:#A6C1D8;" width="85.308" height="40"/>
		<rect x="419.192" y="208.82" style="fill:#D5EBF6;" width="85.308" height="211.42"/>
		<rect x="419.192" y="380.24" style="fill:#A6C1D8;" width="85.308" height="40"/>
		<path style="fill:#59C2E8;" d="M92.808,181.751c-14.95,0-27.069,12.119-27.069,27.069v211.42c0,14.95,12.119,27.069,27.069,27.069    s27.069-12.119,27.069-27.069V208.82C119.877,193.87,107.758,181.751,92.808,181.751z"/>
		<path style="fill:#0097D1;" d="M92.808,407.308c-14.95,0-27.069-12.119-27.069-27.069v40c0,14.95,12.119,27.069,27.069,27.069    c14.95,0,27.069-12.119,27.069-27.069v-40C119.877,395.189,107.758,407.308,92.808,407.308z"/>
		<path style="fill:#59C2E8;" d="M419.192,181.751c14.95,0,27.069,12.119,27.069,27.069v211.42c0,14.95-12.119,27.069-27.069,27.069    c-14.95,0-27.069-12.119-27.069-27.069V208.82C392.123,193.87,404.242,181.751,419.192,181.751z"/>
		<path style="fill:#0097D1;" d="M419.192,407.308c-14.949,0-27.069-12.119-27.069-27.069v40c0,14.95,12.119,27.069,27.069,27.069    c14.95,0,27.069-12.119,27.069-27.069v-40C446.26,395.189,434.142,407.308,419.192,407.308z"/>
		<path style="fill:#FBA557;" d="M326.036,89.776H185.964c-10.806,0-19.566,8.76-19.566,19.566v0    c0,10.806,8.76,19.566,19.566,19.566h140.071c10.806,0,19.566-8.76,19.566-19.566v0C345.601,98.536,336.841,89.776,326.036,89.776    z"/>
		<path style="fill:#FD8754;" d="M196.399,109.342L196.399,109.342c0-10.806,8.76-19.566,19.566-19.566h-30    c-10.806,0-19.566,8.76-19.566,19.566l0,0c0,10.806,8.76,19.565,19.566,19.565h30    C205.159,128.907,196.399,120.147,196.399,109.342z"/>
	</g>
	<g>
		<path d="M180.634,296.569c-4.142,0-7.5,3.358-7.5,7.5v13.64c0,4.142,3.358,7.5,7.5,7.5s7.5-3.358,7.5-7.5v-13.64    C188.134,299.927,184.776,296.569,180.634,296.569z"/>
		<path d="M331.366,296.569c-4.142,0-7.5,3.358-7.5,7.5v13.64c0,4.142,3.358,7.5,7.5,7.5s7.5-3.358,7.5-7.5v-13.64    C338.866,299.927,335.508,296.569,331.366,296.569z"/>
		<path d="M279.538,311.113c-3.119-2.726-7.856-2.407-10.583,0.711c-3.147,3.601-7.869,5.666-12.955,5.666    c-5.085,0-9.807-2.065-12.954-5.666c-2.726-3.119-7.464-3.438-10.583-0.711c-3.119,2.726-3.437,7.464-0.711,10.583    c5.996,6.859,14.834,10.794,24.248,10.794c9.415,0,18.252-3.935,24.249-10.794C282.975,318.577,282.656,313.839,279.538,311.113z"/>
		<path d="M59.069,427.74c3.436,15.466,17.254,27.069,33.739,27.069c14.667,0,27.22-9.186,32.233-22.103    c19.265,11.825,65.934,35.48,130.958,35.48c65.024,0,111.693-23.656,130.958-35.48c5.013,12.917,17.567,22.103,32.234,22.103    c16.485,0,30.303-11.603,33.739-27.069H504.5c4.142,0,7.5-3.358,7.5-7.5V208.82c0-4.142-3.358-7.5-7.5-7.5h-51.568    c-3.436-15.466-17.254-27.069-33.739-27.069c-14.667,0-27.221,9.186-32.234,22.103c-15.947-9.788-50.676-27.676-99.043-33.551    v-26.396h38.121c14.924,0,27.066-12.142,27.066-27.065s-12.142-27.065-27.066-27.065h-38.121v-6.547    c0-17.598-14.317-31.916-31.915-31.916s-31.915,14.317-31.915,31.916v6.547h-38.121c-14.924,0-27.065,12.142-27.065,27.065    s12.142,27.065,27.065,27.065h38.121v26.396c-48.368,5.875-83.096,23.763-99.043,33.551    c-5.013-12.917-17.567-22.103-32.233-22.103c-16.485,0-30.303,11.603-33.739,27.069H7.5c-4.142,0-7.5,3.358-7.5,7.5v211.42    c0,4.142,3.358,7.5,7.5,7.5H59.069z M239.085,75.729c0-9.327,7.588-16.916,16.915-16.916s16.915,7.588,16.915,16.916v6.547h-33.83    V75.729z M497,412.74h-43.239V216.32H497V412.74z M392.123,360.967c4.142,0,7.5-3.358,7.5-7.5V208.82    c0-10.791,8.779-19.569,19.569-19.569c10.79,0,19.568,8.778,19.568,19.569v211.42c0,10.791-8.778,19.569-19.568,19.569    c-10.791,0-19.569-8.778-19.569-19.569v-36.773c0-4.142-3.358-7.5-7.5-7.5s-7.5,3.358-7.5,7.5v32.882    c-11.965,8.047-59.613,36.838-128.623,36.838c-68.78,0-116.624-28.813-128.623-36.848V212.711    c10.683-7.185,49.827-30.889,107.207-35.89c13.835-1.206,27.817-1.233,41.658-0.099c57.857,4.792,97.598,28.779,108.381,35.999    v140.746C384.623,357.609,387.981,360.967,392.123,360.967z M173.899,109.342c0-6.653,5.413-12.065,12.065-12.065h140.071    c6.653,0,12.066,5.412,12.066,12.065c0,6.653-5.413,12.065-12.066,12.065H185.964    C179.312,121.407,173.899,115.995,173.899,109.342z M239.085,136.407h33.83c0,0,0,25.007,0,25.008    c-0.118-0.771-15.57-0.542-16.915-0.542c-5.642,0-11.284,0.184-16.915,0.543V136.407z M15,216.32h43.24v28.147    c0,4.142,3.358,7.5,7.5,7.5s7.5-3.358,7.5-7.5V208.82c0-10.791,8.778-19.569,19.568-19.569s19.568,8.778,19.568,19.569v211.42    c0,10.791-8.778,19.569-19.568,19.569S73.24,431.03,73.24,420.24V274.467c0-4.142-3.358-7.5-7.5-7.5s-7.5,3.358-7.5,7.5V412.74H15    V216.32z"/>
	</g>
</g>















</svg>
