<svg xmlns="http://www.w3.org/2000/svg" viewBox="0 0 512 512" width="512" height="512"><path d="M256 51.314c-13.484 0-24.415 10.931-24.415 24.415v129.434h48.83V75.729c0-13.484-10.931-24.415-24.415-24.415z" fill="#a6c1d8"/><path d="M50.154 314.53l69.723 105.71S172.721 460.687 256 460.687s136.123-40.447 136.123-40.447l69.723-105.71-69.723-105.71S339.279 168.373 256 168.373 119.877 208.82 119.877 208.82L50.154 314.53z" fill="#d5ebf6"/><path d="M392.123 380.24S339.279 420.687 256 420.687 119.877 380.24 119.877 380.24l-56.531-85.71-13.191 20 69.723 105.71s52.844 40.447 136.123 40.447 136.123-40.447 136.123-40.447l69.723-105.71-13.191-20-56.533 85.71z" fill="#a6c1d8"/><path fill="#d5ebf6" d="M7.5 208.82h85.308v211.42H7.5z"/><path fill="#a6c1d8" d="M7.5 380.24h85.308v40H7.5z"/><path fill="#d5ebf6" d="M419.192 208.82H504.5v211.42h-85.308z"/><path fill="#a6c1d8" d="M419.192 380.24H504.5v40h-85.308z"/><path d="M92.808 181.751c-14.95 0-27.069 12.119-27.069 27.069v211.42c0 14.95 12.119 27.069 27.069 27.069s27.069-12.119 27.069-27.069V208.82c0-14.95-12.119-27.069-27.069-27.069z" fill="#59c2e8"/><path d="M92.808 407.308c-14.95 0-27.069-12.119-27.069-27.069v40c0 14.95 12.119 27.069 27.069 27.069s27.069-12.119 27.069-27.069v-40c0 14.95-12.119 27.069-27.069 27.069z" fill="#0097d1"/><path d="M419.192 181.751c14.95 0 27.069 12.119 27.069 27.069v211.42c0 14.95-12.119 27.069-27.069 27.069s-27.069-12.119-27.069-27.069V208.82c0-14.95 12.119-27.069 27.069-27.069z" fill="#59c2e8"/><path d="M419.192 407.308c-14.949 0-27.069-12.119-27.069-27.069v40c0 14.95 12.119 27.069 27.069 27.069s27.069-12.119 27.069-27.069v-40c-.001 14.95-12.119 27.069-27.069 27.069z" fill="#0097d1"/><path d="M326.036 89.776H185.964c-10.806 0-19.566 8.76-19.566 19.566s8.76 19.566 19.566 19.566h140.071c10.806 0 19.566-8.76 19.566-19.566s-8.76-19.566-19.565-19.566z" fill="#fba557"/><path d="M196.399 109.342c0-10.806 8.76-19.566 19.566-19.566h-30c-10.806 0-19.566 8.76-19.566 19.566s8.76 19.565 19.566 19.565h30c-10.806 0-19.566-8.76-19.566-19.565z" fill="#fd8754"/><path d="M180.634 296.569a7.5 7.5 0 0 0-7.5 7.5v13.64a7.5 7.5 0 0 0 15 0v-13.64a7.5 7.5 0 0 0-7.5-7.5zm150.732 0a7.5 7.5 0 0 0-7.5 7.5v13.64a7.5 7.5 0 0 0 15 0v-13.64a7.5 7.5 0 0 0-7.5-7.5zm-51.828 14.544a7.501 7.501 0 0 0-10.583.711c-3.147 3.601-7.869 5.666-12.955 5.666-5.085 0-9.807-2.065-12.954-5.666a7.5 7.5 0 1 0-11.294 9.872c5.996 6.859 14.834 10.794 24.248 10.794 9.415 0 18.252-3.935 24.249-10.794a7.5 7.5 0 0 0-.711-10.583z"/><path d="M59.069 427.74c3.436 15.466 17.254 27.069 33.739 27.069 14.667 0 27.22-9.186 32.233-22.103 19.265 11.825 65.934 35.48 130.958 35.48s111.693-23.656 130.958-35.48c5.013 12.917 17.567 22.103 32.234 22.103 16.485 0 30.303-11.603 33.739-27.069h51.57a7.5 7.5 0 0 0 7.5-7.5V208.82a7.5 7.5 0 0 0-7.5-7.5h-51.568c-3.436-15.466-17.254-27.069-33.739-27.069-14.667 0-27.221 9.186-32.234 22.103-15.947-9.788-50.676-27.676-99.043-33.551v-26.396h38.121c14.924 0 27.066-12.142 27.066-27.065s-12.142-27.065-27.066-27.065h-38.121V75.73c0-17.598-14.317-31.916-31.915-31.916s-31.915 14.317-31.915 31.916v6.547h-38.121c-14.924 0-27.065 12.142-27.065 27.065s12.142 27.065 27.065 27.065h38.121v26.396c-48.368 5.875-83.096 23.763-99.043 33.551-5.013-12.917-17.567-22.103-32.233-22.103-16.485 0-30.303 11.603-33.739 27.069H7.5a7.5 7.5 0 0 0-7.5 7.5v211.42a7.5 7.5 0 0 0 7.5 7.5h51.569zM239.085 75.729c0-9.327 7.588-16.916 16.915-16.916s16.915 7.588 16.915 16.916v6.547h-33.83v-6.547zM497 412.74h-43.239V216.32H497v196.42zm-104.877-51.773a7.5 7.5 0 0 0 7.5-7.5V208.82c0-10.791 8.779-19.569 19.569-19.569s19.568 8.778 19.568 19.569v211.42c0 10.791-8.778 19.569-19.568 19.569-10.791 0-19.569-8.778-19.569-19.569v-36.773a7.5 7.5 0 0 0-15 0v32.882c-11.965 8.047-59.613 36.838-128.623 36.838-68.78 0-116.624-28.813-128.623-36.848V212.711c10.683-7.185 49.827-30.889 107.207-35.89a247.646 247.646 0 0 1 41.658-.099c57.857 4.792 97.598 28.779 108.381 35.999v140.746a7.5 7.5 0 0 0 7.5 7.5zM173.899 109.342c0-6.653 5.413-12.065 12.065-12.065h140.071c6.653 0 12.066 5.412 12.066 12.065s-5.413 12.065-12.066 12.065H185.964c-6.652 0-12.065-5.412-12.065-12.065zm65.186 27.065h33.83v25.008c-.118-.771-15.57-.542-16.915-.542-5.642 0-11.284.184-16.915.543v-25.009zM15 216.32h43.24v28.147a7.5 7.5 0 0 0 15 0V208.82c0-10.791 8.778-19.569 19.568-19.569s19.568 8.778 19.568 19.569v211.42c0 10.791-8.778 19.569-19.568 19.569S73.24 431.03 73.24 420.24V274.467a7.5 7.5 0 0 0-15 0V412.74H15V216.32z"/></svg>